<?xml version="1.0" standalone="no"?>
<!DOCTYPE svg PUBLIC "-//W3C//DTD SVG 20010904//EN"
 "http://www.w3.org/TR/2001/REC-SVG-20010904/DTD/svg10.dtd">
<svg version="1.0" xmlns="http://www.w3.org/2000/svg"
 width="1280.000000pt" height="1280.000000pt" viewBox="0 0 1280.000000 1280.000000"
 preserveAspectRatio="xMidYMid meet">
<metadata>
Created by potrace 1.15, written by Peter Selinger 2001-2017
</metadata>
<g transform="translate(0.000000,1280.000000) scale(0.100000,-0.100000)"
fill="#800020" stroke="none">
<path d="M12016 9924 c-657 -102 -1642 -686 -2856 -1693 -688 -571 -1263
-1102 -2014 -1862 l-411 -416 -307 -57 c-492 -91 -801 -134 -1193 -166 -182
-15 -642 -23 -754 -13 l-94 8 -42 100 c-177 426 -442 748 -820 998 -99 65
-280 158 -392 202 -83 32 -82 30 -58 135 82 348 354 664 740 858 199 99 360
137 585 135 235 -1 409 -43 625 -149 258 -127 433 -293 545 -514 87 -174 123
-324 123 -523 -1 -147 2 -142 -103 -212 -83 -55 -98 -72 -116 -131 -17 -57
-18 -115 -3 -186 14 -65 30 -90 82 -128 67 -49 133 -38 200 31 88 91 111 214
104 549 -4 207 -7 247 -30 340 -75 310 -212 556 -431 776 -231 231 -489 366
-801 420 -125 22 -414 14 -536 -14 -298 -70 -523 -194 -734 -406 -229 -230
-367 -489 -420 -791 -10 -55 -19 -101 -20 -103 -2 -2 -31 4 -66 12 -195 45
-443 63 -644 47 -635 -52 -1215 -376 -1578 -884 -284 -397 -421 -849 -404
-1337 21 -609 273 -1137 749 -1570 148 -135 288 -229 481 -325 369 -184 727
-244 1204 -204 669 56 1454 364 2103 826 410 292 659 525 1165 1093 269 302
471 524 703 772 171 183 200 210 245 227 56 20 533 140 758 190 432 96 855
137 1149 112 74 -7 136 -14 139 -16 2 -2 -28 -46 -66 -97 -341 -455 -688
-1036 -861 -1443 -170 -401 -233 -747 -187 -1035 29 -182 76 -279 192 -400
134 -141 298 -200 555 -200 309 0 522 94 802 354 566 525 885 1431 731 2074
-33 139 -94 289 -157 392 -60 98 -181 228 -280 301 l-68 51 54 61 c107 124
2901 3464 2953 3531 86 111 71 156 -82 232 -127 62 -271 78 -459 48z m269
-204 c8 -13 0 -21 -520 -571 -462 -489 -766 -812 -1070 -1139 -110 -118 -290
-312 -400 -430 -321 -344 -774 -836 -999 -1085 -115 -126 -216 -238 -225 -248
-16 -17 -22 -17 -104 -3 -416 73 -1070 13 -1642 -150 -66 -19 -154 -41 -195
-48 l-75 -15 460 457 c761 757 1165 1121 1900 1713 1125 907 2023 1424 2645
1522 55 9 219 7 225 -3z m-9673 -2760 c117 -17 250 -53 259 -70 4 -8 12 -65
18 -127 25 -245 120 -461 297 -674 251 -301 581 -483 1001 -549 l71 -12 16
-66 c24 -102 35 -186 43 -314 l6 -117 -30 -28 c-16 -15 -55 -50 -87 -76 -76
-65 -90 -95 -90 -187 1 -97 29 -173 85 -224 77 -72 143 -68 222 12 63 64 77
112 77 261 0 168 -18 479 -35 600 -8 58 -15 108 -15 111 0 4 163 10 363 13
492 8 874 47 1475 153 112 20 205 34 208 32 2 -2 -56 -69 -129 -149 -73 -79
-271 -297 -441 -484 -684 -753 -801 -867 -1181 -1150 -575 -429 -1234 -723
-1845 -824 -290 -48 -704 -54 -880 -13 -638 151 -1191 712 -1406 1427 -111
366 -106 782 12 1156 121 382 352 722 639 938 286 217 557 330 885 370 91 12
356 6 462 -9z m608 -191 c260 -125 510 -316 670 -509 107 -130 262 -392 294
-497 7 -22 6 -23 -41 -17 -82 11 -214 53 -313 100 -380 180 -699 537 -764 856
-9 42 -16 89 -16 104 0 25 2 26 33 20 17 -3 79 -29 137 -57z m6338 -963 c134
-94 205 -186 272 -354 64 -159 84 -276 83 -487 0 -275 -46 -502 -159 -780
-124 -302 -289 -550 -510 -766 -212 -205 -412 -315 -616 -338 -151 -17 -356
22 -460 88 -59 38 -121 116 -145 183 -30 86 -25 273 11 413 117 456 513 1090
1183 1892 79 95 156 182 171 194 39 30 78 20 170 -45z"/>
</g>
</svg>
