
        <svg xmlns="http://www.w3.org/2000/svg" xmlns:xlink="http://www.w3.org/1999/xlink" version="1.1" width="3176.991150442478" 
        height="1670.8262406963047" viewBox="0 -159.29203539823007 3176.991150442478 1670.8262406963047">
			
			<g transform="scale(8.849557522123893) translate(10, 10)">
				<defs id="SvgjsDefs2576"></defs><g id="SvgjsG2577" featureKey="monogramFeature-0" transform="matrix(2.257782598452149,0,0,2.257782598452149,2.658311600592002,-66.49073545166411)" fill="#f2f2f2"><path d="M35.64 81.06 c0.18 -0.66 0.42 -4.02 0.66 -6.54 l-0.3 -1.92 c-0.66 -4.14 -5.76 -9.18 -11.82 -11.88 c-1.98 -0.84 -5.34 -2.28 -8.04 -3.54 c-6.9 11.52 -12.66 22.68 -15.72 29.82 c-0.9 2.1 -1.92 1.2 -1.5 0.12 c3.72 -8.76 7.38 -16.14 15.9 -30.54 c-1.14 -0.48 -2.1 -0.96 -2.58 -1.2 c-1.8 -0.9 -1.38 -3.9 5.7 -4.02 l1.68 -2.7 c11.52 -19.02 23.28 -27.36 24.96 -27.18 s2.58 1.26 2.22 3.06 c-0.3 1.8 -3.24 13.14 -6.12 27.54 c0.78 0.18 1.68 0.42 2.58 0.9 c1.26 0.72 4.2 1.62 -2.58 0.72 l-0.3 0 c-2.04 10.8 -2.34 13.92 -2.82 20.34 c-0.06 0.18 0 0.36 -0.06 0.54 c0.6 3.9 0.48 4.44 0.42 5.22 c-0.06 0.9 -1.2 1.86 -1.62 1.8 s-0.84 0.06 -0.66 -0.54 z M19.68 51.36 c7.2 -0.06 18.6 0.48 19.86 0.54 c3 -15.3 6.12 -26.28 6.24 -27.36 c0.12 -1.02 0.24 -1.98 -0.84 -2.1 c-1.14 -0.12 -15.66 13.74 -24 26.94 z M24.6 59.82 c7.44 3.54 10.8 7.26 12.06 10.74 c0.36 -3.84 0.72 -7.38 2.52 -17.04 c-6.48 -0.66 -15.24 -0.6 -20.52 -0.48 c-0.66 1.02 -1.26 2.04 -1.86 3.06 z M13.08 54.36 l2.4 1.14 l1.44 -2.4 c-4.2 0.3 -4.32 1.14 -3.84 1.26 z"></path></g><g id="SvgjsG2578" featureKey="nameFeature-0" transform="matrix(0.7401104732072303,0,0,0.7401104732072303,128.20541682678797,56.11002232663583)" fill="#f2f2f2"><path d="M22.07 40 l-2.3047 -6.4453 l-12.344 0 l-2.3047 6.4453 l-4.043 0 l10.176 -27.617 l4.6875 0 l10.176 27.617 l-4.043 0 z M8.6328 30.1562 l9.9219 0 l-4.9609 -13.926 z M47.8078671875 12.383 c5.0586 0 8.3203 3.8281 8.3203 8.5547 c0 4.7852 -3.2617 8.4766 -8.3203 8.4766 l-6.7578 0 l0 10.586 l-3.8867 0 l0 -27.617 l10.645 0 z M47.221867187499996 26.055 c3.2422 0 5.0586 -2.0898 5.0586 -5.1758 c0 -2.9688 -1.8164 -5.1563 -5.0586 -5.1563 l-6.1719 0 l0 10.332 l6.1719 0 z M82.725046875 40 l-7.1484 -12.422 l-3.8672 0 l0 12.422 l-3.8867 0 l0 -27.617 l9.2969 0 c5.7813 0 8.418 3.5352 8.418 7.8711 c0 3.8477 -2.2656 6.5234 -6.0547 7.168 l7.793 12.578 l-4.5508 0 z M71.708946875 15.742 l0 8.8672 l4.8828 0 c3.5938 0 5.2148 -1.7969 5.2148 -4.4141 c0 -2.5781 -1.6211 -4.4531 -5.2148 -4.4531 l-4.8828 0 z M98.7158015625 40 l0 -27.617 l3.8867 0 l0 27.617 l-3.8867 0 z M120.68355625 36.4844 l9.4336 0 l0 3.5156 l-13.32 0 l0 -27.617 l3.8867 0 l0 24.102 z M173.290765625 40 l-9.6875 -12.598 l-2.3828 0 l0 12.598 l-3.8867 0 l0 -27.617 l3.8867 0 l0 11.543 l2.3438 0 l9.4141 -11.543 l4.7656 0 l-10.82 13.164 l11.348 14.453 l-4.9805 0 z M189.2236140625 40 l0 -27.617 l3.8867 0 l0 27.617 l-3.8867 0 z M215.95746875 40.37109 c-5.7617 0 -9.9805 -2.7539 -10.918 -7.4414 l3.9648 -0.9375 c0.625 3.2227 3.418 5.0781 7.0898 5.0781 c2.9492 0 5.7813 -1.2109 5.7227 -4.5313 c-0.039063 -3.2813 -3.5938 -4.1797 -7.3633 -5.2148 c-4.2773 -1.1719 -8.5547 -2.5195 -8.5547 -7.5977 c0 -5.1367 4.2383 -7.7148 9.2578 -7.7148 c4.8633 0 9.2383 2.0508 10.273 6.7969 l-3.7695 0.95703 c-0.68359 -3.0664 -3.2422 -4.4336 -6.3281 -4.4336 c-2.7734 0 -5.5273 1.2109 -5.5273 4.3555 c0 2.8516 3.0859 3.6914 6.582 4.6289 c4.3945 1.1914 9.4336 2.5586 9.4336 8.1055 c0 5.5859 -4.6875 7.9492 -9.8633 7.9492 z M253.0031796875 15.879000000000001 l-11.055 0 l0 8.5938 l9.7461 0 l0 3.4766 l-9.7461 0 l0 8.5352 l11.055 0 l0 3.5156 l-15.02 0 l0 -27.617 l15.02 0 l0 3.4961 z M280.264109375 40 l-7.1484 -12.422 l-3.8672 0 l0 12.422 l-3.8867 0 l0 -27.617 l9.2969 0 c5.7813 0 8.418 3.5352 8.418 7.8711 c0 3.8477 -2.2656 6.5234 -6.0547 7.168 l7.793 12.578 l-4.5508 0 z M269.248009375 15.742 l0 8.8672 l4.8828 0 c3.5938 0 5.2148 -1.7969 5.2148 -4.4141 c0 -2.5781 -1.6211 -4.4531 -5.2148 -4.4531 l-4.8828 0 z"></path></g>
			</g>
		</svg>
	